<svg width="131" height="131" viewBox="0 0 131 131" fill="none" xmlns="http://www.w3.org/2000/svg">
    <g filter="url(#filter0_d_6_108)">
        <circle cx="65.5" cy="65.5" r="57.5" fill="white" />
    </g>
    <circle cx="65.5" cy="65.5" r="47.5" fill="#276BF2" />
    <path
        d="M65.5 40.4688C48.5344 40.4688 34.9062 54.0969 34.9062 71.0625C34.9062 88.0281 48.5344 101.656 65.5 101.656C82.4656 101.656 96.0938 88.0281 96.0938 71.0625C96.0938 54.0969 82.4656 40.4688 65.5 40.4688ZM73.8438 65.5C73.8438 63.8312 74.9562 62.7188 76.625 62.7188C78.2938 62.7188 79.4062 63.8312 79.4062 65.5V68.2812C79.4062 69.95 78.2938 71.0625 76.625 71.0625C74.9562 71.0625 73.8438 69.95 73.8438 68.2812V65.5ZM51.5938 65.5C51.5938 63.8312 52.7062 62.7188 54.375 62.7188C56.0438 62.7188 57.1562 63.8312 57.1562 65.5V68.2812C57.1562 69.95 56.0438 71.0625 54.375 71.0625C52.7062 71.0625 51.5938 69.95 51.5938 68.2812V65.5ZM65.5 96.0938C56.0437 96.0938 47.9781 90.5312 47.9781 83.5781C47.9781 77.4594 54.375 72.175 62.7188 71.3406V76.625C62.7188 78.2938 63.8312 79.4062 65.5 79.4062C67.1688 79.4062 68.2812 78.2938 68.2812 76.625V71.3406C76.625 72.175 83.0219 77.4594 83.0219 83.5781C83.0219 90.5312 74.9563 96.0938 65.5 96.0938Z"
        fill="white" />
    <path
        d="M52.15 37.4094C49.6469 35.7406 46.5875 34.9062 43.25 34.9062C34.0719 34.9062 26.5625 42.4156 26.5625 51.5938C26.5625 55.4875 27.9531 59.3813 30.4563 62.1625C33.2375 51.0375 41.5812 41.8594 52.15 37.4094Z"
        fill="white" />
    <path
        d="M87.75 34.9062C84.4125 34.9062 81.3531 35.7406 78.85 37.4094C89.4187 41.5813 97.7625 50.7594 100.544 62.1625C103.047 59.1031 104.437 55.4875 104.437 51.5938C104.437 42.4156 96.9281 34.9062 87.75 34.9062Z"
        fill="white" />
    <defs>
        <filter id="filter0_d_6_108" x="0" y="0" width="131" height="131"
            filterUnits="userSpaceOnUse" color-interpolation-filters="sRGB">
            <feFlood flood-opacity="0" result="BackgroundImageFix" />
            <feColorMatrix in="SourceAlpha" type="matrix"
                values="0 0 0 0 0 0 0 0 0 0 0 0 0 0 0 0 0 0 127 0" result="hardAlpha" />
            <feOffset />
            <feGaussianBlur stdDeviation="4" />
            <feComposite in2="hardAlpha" operator="out" />
            <feColorMatrix type="matrix" values="0 0 0 0 0 0 0 0 0 0 0 0 0 0 0 0 0 0 0.25 0" />
            <feBlend mode="normal" in2="BackgroundImageFix" result="effect1_dropShadow_6_108" />
            <feBlend mode="normal" in="SourceGraphic" in2="effect1_dropShadow_6_108" result="shape" />
        </filter>
    </defs>
</svg>